<?xml version="1.0" encoding="UTF-8" standalone="no"?>
<!-- Created with Inkscape (http://www.inkscape.org/) -->

<svg
   width="118.54122mm"
   height="135.46667mm"
   viewBox="0 0 118.54122 135.46667"
   version="1.1"
   id="svg185"
   xml:space="preserve"
   xmlns="http://www.w3.org/2000/svg"
   xmlns:svg="http://www.w3.org/2000/svg"><defs
     id="defs182" /><g
     id="layer1"
     transform="translate(-52.289071,-114.75174)"><path
       d="m 86.163629,125.33507 c 0,-5.84729 4.736041,-10.58333 10.583333,-10.58333 5.847288,0 10.583328,4.73604 10.583328,10.58333 v 39.21125 c 2.24896,-2.01083 5.2123,-3.22791 8.46667,-3.22791 5.45042,0 10.10708,3.43958 11.90625,8.255 2.32833,-2.46063 5.60917,-4.02167 9.26042,-4.02167 6.69396,0 12.17083,5.15937 12.67354,11.72104 2.24896,-2.03729 5.23875,-3.25437 8.49312,-3.25437 7.01146,0 12.7,5.68854 12.7,12.7 v 12.7 4.23333 12.7 c 0,18.70604 -15.16062,33.86667 -33.86666,33.86667 h -4.23334 -16.93333 -0.0265 -1.37583 c -1.32292,0 -2.61938,-0.0794 -3.88938,-0.26459 -14.631453,-1.48166 -28.098745,-8.99583 -37.041661,-20.90208 l -19.05,-25.4 c -3.518959,-4.68313 -2.566459,-11.29771 2.116666,-14.81667 4.683125,-3.51896 11.297709,-2.56646 14.816667,2.11667 l 14.816667,19.76437 z m 29.633331,69.85 c 0,-2.32833 -1.905,-4.23333 -4.23333,-4.23333 -2.32834,0 -4.23334,1.905 -4.23334,4.23333 v 25.4 c 0,2.32834 1.905,4.23334 4.23334,4.23334 2.32833,0 4.23333,-1.905 4.23333,-4.23334 z m 12.7,-4.23333 c -2.32833,0 -4.23333,1.905 -4.23333,4.23333 v 25.4 c 0,2.32834 1.905,4.23334 4.23333,4.23334 2.32833,0 4.23333,-1.905 4.23333,-4.23334 v -25.4 c 0,-2.32833 -1.905,-4.23333 -4.23333,-4.23333 z m 21.16667,4.23333 c 0,-2.32833 -1.905,-4.23333 -4.23334,-4.23333 -2.32833,0 -4.23333,1.905 -4.23333,4.23333 v 25.4 c 0,2.32834 1.905,4.23334 4.23333,4.23334 2.32834,0 4.23334,-1.905 4.23334,-4.23334 z"
       id="path306"
       style="stroke-width:0.264583;fill:#ffffff" /></g></svg>
